<svg xmlns="http://www.w3.org/2000/svg" viewBox="0 0 32 32">
  <defs>
    <linearGradient id="g" x1="0%" y1="0%" x2="0%" y2="100%">
      <stop offset="0%" stop-color="#00d26a"/>
      <stop offset="100%" stop-color="#00a855"/>
    </linearGradient>
  </defs>
  <!-- Simplified palm tree silhouette -->
  <path fill="url(#g)" d="
    M16 28 L18 28 L18 16 L14 16 L14 28 Z
    M16 4 Q8 6 4 12 Q8 10 12 12 Q10 8 16 6
    M16 4 Q24 6 28 12 Q24 10 20 12 Q22 8 16 6
    M16 4 L16 8 Q12 6 8 10 Q10 8 16 6
    M16 4 L16 8 Q20 6 24 10 Q22 8 16 6
  "/>
  <!-- Cleaner leaf shapes -->
  <path fill="#00d26a" d="M16 6 Q6 4 2 14 Q8 8 16 10 Z"/>
  <path fill="#00d26a" d="M16 6 Q26 4 30 14 Q24 8 16 10 Z"/>
  <path fill="#00a855" d="M16 8 Q4 10 4 18 Q10 12 16 14 Z"/>
  <path fill="#00a855" d="M16 8 Q28 10 28 18 Q22 12 16 14 Z"/>
  <path fill="#00d26a" d="M16 4 Q14 2 10 6 Q12 4 16 6 Q20 4 22 6 Q18 2 16 4 Z"/>
  <!-- Trunk -->
  <rect x="14" y="14" width="4" height="16" rx="1" fill="#8B5A2B"/>
</svg>
